<?xml version="1.0" standalone="no"?>
<!DOCTYPE svg PUBLIC "-//W3C//DTD SVG 20010904//EN"
 "http://www.w3.org/TR/2001/REC-SVG-20010904/DTD/svg10.dtd">
<svg version="1.0" xmlns="http://www.w3.org/2000/svg"
 width="700.000000pt" height="700.000000pt" viewBox="0 0 700.000000 700.000000"
 preserveAspectRatio="xMidYMid meet">
<metadata>
Created by potrace 1.14, written by Peter Selinger 2001-2017
</metadata>
<g transform="translate(0.000000,700.000000) scale(0.100000,-0.100000)"
fill="#000000" stroke="none">
<path d="M0 3500 l0 -3500 3500 0 3500 0 0 3500 0 3500 -3500 0 -3500 0 0
-3500z m3620 2238 l1 -943 1024 -1059 1025 -1059 0 -124 0 -123 -930 -2 -930
-3 676 -700 c372 -385 792 -818 932 -963 l255 -263 -84 -85 c-46 -46 -86 -84
-89 -84 -3 0 -426 435 -940 966 l-935 967 -3 -682 -2 -681 -125 0 -125 0 0
765 0 765 -360 0 -360 0 0 120 0 120 360 0 360 0 0 783 0 782 -836 -1665
c-460 -916 -838 -1666 -839 -1668 -5 -6 -215 103 -215 111 0 5 425 856 945
1892 l945 1882 -2 705 -3 704 -914 -1488 c-503 -818 -917 -1488 -920 -1488
-20 0 -196 118 -195 130 1 9 459 761 1019 1673 l1018 1657 123 0 124 0 0 -942z"/>
<path d="M3620 3557 l0 -887 857 0 857 0 -55 58 c-31 31 -397 410 -814 842
-417 432 -777 805 -801 830 l-44 45 0 -888z"/>
</g>
</svg>
