<svg width="24" height="24" viewBox="0 0 24 24" fill="none" xmlns="http://www.w3.org/2000/svg">
<path d="M19.8449 13.7295C20.1969 11.9178 20.1773 9.32334 20.1762 9.22623C20.1751 5.27154 17.5354 4.12554 17.4973 4.1092C16.2832 3.55282 14.2005 3.29877 12.0327 3.28101L19.8449 13.7295ZM19.8449 13.7295V13.7296V13.7295ZM15.2783 16.8784C15.4096 16.8627 15.5399 16.8432 15.6689 16.8201L15.7438 16.7124C15.7441 16.7126 15.7443 16.7128 15.7446 16.7129C15.6495 16.6466 15.5481 16.5906 15.4419 16.5458C15.3756 16.5558 15.309 16.5648 15.2422 16.5728L15.242 16.5728C15.2419 16.5728 15.2419 16.5728 15.2419 16.5728L15.2783 16.8784ZM15.2783 16.8784C15.1772 16.8905 15.0762 16.9024 14.9753 16.9141C14.801 16.9344 14.6269 16.9539 14.4527 16.9721C14.4108 16.8389 14.3805 16.7426 14.3587 16.673C14.5835 16.6498 14.8052 16.6245 15.0237 16.5987C15.0968 16.5901 15.1695 16.5814 15.2418 16.5728L15.2783 16.8784ZM15.1598 15.8855C15.1598 15.8855 15.1598 15.8855 15.1599 15.8855L15.2299 16.4726L18.5026 15.2158C18.5025 15.2159 18.5024 15.216 18.5023 15.2161L18.1119 14.7499L18.0579 14.6855C18.0579 14.6855 18.0579 14.6855 18.0579 14.6855C17.3784 15.2548 16.3207 15.7468 15.1601 15.8854C15.1601 15.8854 15.16 15.8854 15.16 15.8854C15.1599 15.8854 15.1598 15.8855 15.1598 15.8855ZM15.1598 15.8855C14.0689 16.0156 13.0705 16.1222 12.0186 16.074C12.0186 16.074 12.0186 16.074 12.0186 16.074L12.0185 16.074C11.2124 16.0371 10.4812 15.946 9.92113 15.857V16.5578M15.1598 15.8855L15.2299 16.4726C15.1705 16.4566 15.1101 16.4438 15.0489 16.4344C14.7993 16.3961 14.5442 16.4155 14.3032 16.4911C14.3028 16.4912 14.3023 16.4914 14.3019 16.4915L14.2987 16.4925L14.27 16.5009C14.2425 16.5089 14.199 16.521 14.1413 16.536C14.0257 16.566 13.855 16.6067 13.6452 16.6463C13.3216 16.7075 12.9187 16.7635 12.489 16.778M12.489 16.778C12.3234 16.7772 12.156 16.7732 11.9869 16.7655C11.9869 16.7655 11.9869 16.7655 11.9869 16.7655C11.9869 16.7655 11.9868 16.7655 11.9868 16.7655C11.6287 16.7491 11.2859 16.7225 10.966 16.6903M12.489 16.778C12.3548 16.7825 12.2179 16.783 12.0801 16.7782M12.489 16.778C13.1369 16.781 13.7588 16.7348 14.3577 16.6731L14.4521 16.9722C13.6714 17.0536 12.8883 17.1079 12.0698 17.077L12.0801 16.7782M10.966 16.6903C10.8956 16.6774 10.8284 16.6624 10.7642 16.6448L10.7641 16.6448C10.6392 16.6107 10.5771 16.5741 10.5474 16.5508C10.5263 16.5342 10.5025 16.5107 10.4786 16.4487L10.1196 16.5872M10.966 16.6903C10.8954 16.6833 10.826 16.6759 10.7577 16.6683C10.7577 16.6683 10.7577 16.6683 10.7576 16.6683C10.5307 16.6431 10.3171 16.6155 10.1196 16.5872M10.966 16.6903C11.2469 16.7419 11.5794 16.7602 11.9864 16.775C11.9864 16.775 11.9864 16.775 11.9864 16.775C12.0172 16.7761 12.0484 16.7772 12.0801 16.7782M10.1196 16.5872C10.0515 16.5775 9.98528 16.5676 9.92113 16.5578M10.1196 16.5872L9.54562 16.8087L12.0697 17.077L12.0799 16.7782C12.08 16.7782 12.08 16.7782 12.0801 16.7782M9.92113 16.5578V16.6267L9.59034 16.5458L9.13961 16.4355M9.92113 16.5578C9.82981 16.5438 9.74267 16.5298 9.66006 16.516C9.63882 16.5125 9.61787 16.5089 9.59721 16.5054C9.4215 16.4755 9.26714 16.4468 9.13779 16.4213C9.13838 16.4261 9.13899 16.4308 9.13961 16.4355M9.13961 16.4355L8.68733 16.3249M9.13961 16.4355L8.68733 16.3249M8.68733 16.3249L8.68567 16.3245L8.68503 16.3243L8.68476 16.3243C8.68433 16.3242 8.68391 16.3241 8.68349 16.3239L8.68733 16.3249ZM6.90778 5.02567L6.90781 5.02566L7.04111 5.30282C6.99113 5.19891 6.94691 5.10699 6.90778 5.02567ZM5.14583 11.9896H5.14581H5.14583Z" stroke-width="2"/>
</svg>
