<svg width="24" height="24" viewBox="0 0 24 24" fill="none" xmlns="http://www.w3.org/2000/svg">
<path d="M1.2464 14.6884C1.2464 17.36 3.41393 19.5275 6.08553 19.5275H18.4522C20.8281 19.5275 22.7536 17.6019 22.7536 15.226C22.7536 13.1459 21.275 11.4085 19.3125 11.012C19.4503 10.6524 19.5276 10.2592 19.5276 9.84922C19.5276 8.06815 18.0825 6.62314 16.3015 6.62314C15.6395 6.62314 15.0211 6.82477 14.5103 7.16754C13.5795 5.5545 11.8421 4.47241 9.8493 4.47241C6.87861 4.47241 4.47249 6.87854 4.47249 9.84922C4.47249 9.93996 4.47585 10.0307 4.47921 10.1214C2.59732 10.7834 1.2464 12.578 1.2464 14.6884Z" stroke-width="2"/>
</svg>
