<svg width="25" height="24" viewBox="0 0 25 24" fill="none" xmlns="http://www.w3.org/2000/svg">
<path d="M16.6183 3.76318H8.38167C6.10718 3.76318 4.26334 5.60702 4.26334 7.88152V16.1182C4.26334 18.3927 6.10718 20.2365 8.38167 20.2365H16.6183C18.8928 20.2365 20.7367 18.3927 20.7367 16.1182V7.88152C20.7367 5.60702 18.8928 3.76318 16.6183 3.76318Z"  stroke-width="2" stroke-linecap="round" stroke-linejoin="round"/>
<path d="M15.7947 11.4811C15.8963 12.1666 15.7792 12.8667 15.4601 13.4818C15.1409 14.0969 14.6359 14.5957 14.0169 14.9073C13.3979 15.2188 12.6964 15.3273 12.0122 15.2172C11.328 15.1071 10.696 14.784 10.206 14.294C9.71594 13.804 9.39291 13.172 9.28281 12.4878C9.17272 11.8036 9.28116 11.1021 9.59273 10.4831C9.90429 9.8641 10.4031 9.3591 11.0182 9.03993C11.6333 8.72076 12.3334 8.60367 13.0189 8.70532C13.7181 8.809 14.3655 9.13483 14.8653 9.63467C15.3652 10.1345 15.691 10.7818 15.7947 11.4811Z"  stroke-width="2" stroke-linecap="round" stroke-linejoin="round"/>
<path d="M17.0302 7.46973H17.0401" stroke-width="2" stroke-linecap="round" stroke-linejoin="round"/>
</svg>
