<svg width="25" height="24" viewBox="0 0 25 24" fill="none" xmlns="http://www.w3.org/2000/svg">
<path d="M16.7327 5.23171C16.7459 5.11838 16.7626 5.00549 16.7828 4.8932C16.7953 4.82492 16.8126 4.75761 16.8345 4.69176L16.8345 4.69176L16.8364 4.68615C16.8442 4.66217 16.8522 4.63878 16.8605 4.61595L16.7327 5.23171ZM15.8664 5.14042L15.7383 5.12638C15.7541 4.98862 15.7742 4.8514 15.7988 4.71493L15.8664 5.14042ZM15.8663 5.14105C15.8656 5.14979 15.865 5.15853 15.8643 5.16728C15.8513 5.34285 15.8418 5.51866 15.8357 5.6946C15.8357 5.69493 15.8357 5.69526 15.8357 5.69559C15.8355 5.70301 15.8352 5.71043 15.835 5.71785L15.8663 5.14105ZM6.54967 19.8484C6.5658 19.9067 6.58362 19.964 6.60331 20.02C6.56688 20.02 6.53046 20.0201 6.49406 20.0202C6.51443 19.9641 6.53292 19.9068 6.54967 19.8484ZM15.6995 5.69076L15.6995 5.69076L15.6995 5.69076Z" stroke-width="2"/>
</svg>
