<svg width="24" height="24" viewBox="0 0 24 24" fill="none" xmlns="http://www.w3.org/2000/svg">
<path d="M23.623 11.9609C23.623 17.4004 19.1113 21.9219 13.6621 21.9219C12.2827 21.9219 10.9623 21.6311 9.76102 21.106C10.6932 20.0086 11.2598 18.5954 11.2598 17.0684C11.2598 16.5543 11.1969 16.0536 11.0716 15.5767C11.8513 15.3894 12.7221 15.2812 13.6621 15.2812C16.602 15.2812 18.8622 16.3335 19.8475 17.5024C21.1676 16.0422 21.9629 14.1004 21.9629 11.9609C21.9629 7.35156 18.2617 3.66015 13.6523 3.66015C9.44012 3.66015 6.01073 6.74293 5.46055 10.7951C5.29658 10.7763 5.1295 10.7696 4.96095 10.7696C4.55163 10.7696 4.15072 10.8096 3.76285 10.8888C4.30501 5.93192 8.57442 2 13.6523 2C19.1016 2 23.623 6.51172 23.623 11.9609ZM17.0117 9.93945C17.0117 12.0391 15.5469 13.6406 13.6621 13.621C11.7871 13.6015 10.3223 12.0391 10.3125 9.93945C10.3027 7.96679 11.7871 6.33593 13.6621 6.33593C15.5371 6.33593 17.0117 7.96679 17.0117 9.93945Z" stroke-width="1.5" stroke-linejoin="round" stroke-miterlimit="1.1547" stroke-linejoin="bevel"/>
<path d="M9.92191 17.0683C9.92191 19.7832 7.64649 22.0292 4.96094 22.0292C2.24609 22.0292 0 19.8027 0 17.0683C0 14.3535 2.24609 12.1074 4.96094 12.1074C7.68555 12.1074 9.92191 14.3437 9.92191 17.0683ZM6.71875 14.871L4.3457 18.1718L3.14453 16.873C3.03711 16.7656 2.88086 16.6679 2.67578 16.6679C2.33399 16.6679 2.06055 16.9316 2.06055 17.2832C2.06055 17.4199 2.10938 17.5956 2.22656 17.7226L3.87695 19.539C4.00391 19.6757 4.20899 19.7441 4.36523 19.7441C4.58008 19.7441 4.77539 19.6562 4.88281 19.5097L7.71484 15.5742C7.80273 15.4472 7.85156 15.3105 7.85156 15.2031C7.85156 14.8613 7.56836 14.5976 7.23633 14.5976C7.01172 14.5976 6.83594 14.705 6.71875 14.871Z" stroke-width="1.5" stroke-linejoin="round" stroke-miterlimit="1.1547" stroke-linejoin="bevel"/>
</svg>

